<svg width="200" height="200" viewBox="0 0 200 200" fill="none" xmlns="http://www.w3.org/2000/svg">
<path d="M200 100C200 155.228 155.228 200 100 200C44.7715 200 0 155.228 0 100C0 44.7715 44.7715 0 100 0C155.228 0 200 44.7715 200 100Z" fill="#D1AA67"/>
<path d="M66.5403 60.15C66.1736 60.15 65.8803 60.0217 65.6603 59.765C65.477 59.5083 65.422 59.1967 65.4953 58.83L70.9953 32.87C71.0686 32.5033 71.252 32.1917 71.5453 31.935C71.8753 31.6783 72.2236 31.55 72.5903 31.55H76.8803C77.247 31.55 77.522 31.6783 77.7053 31.935C77.8886 32.1917 77.9436 32.5033 77.8703 32.87L77.4853 34.74C78.182 34.0433 78.897 33.42 79.6303 32.87C80.4003 32.2833 81.2803 31.825 82.2703 31.495C83.2603 31.165 84.4153 31 85.7353 31C87.862 31 89.6036 31.44 90.9603 32.32C92.3536 33.1633 93.2886 34.355 93.7653 35.895C94.9386 34.4283 96.2953 33.255 97.8353 32.375C99.3753 31.4583 101.172 31 103.225 31C105.205 31 106.91 31.44 108.34 32.32C109.807 33.2 110.834 34.5383 111.42 36.335C112.007 38.095 112.025 40.3317 111.475 43.045L108.065 58.83C107.992 59.1967 107.809 59.5083 107.515 59.765C107.222 60.0217 106.892 60.15 106.525 60.15H102.015C101.649 60.15 101.355 60.0217 101.135 59.765C100.952 59.5083 100.897 59.1967 100.97 58.83L104.215 43.485C104.582 41.835 104.655 40.5333 104.435 39.58C104.215 38.59 103.757 37.8933 103.06 37.49C102.4 37.0867 101.594 36.885 100.64 36.885C99.797 36.885 98.8986 37.0867 97.9453 37.49C97.0286 37.8933 96.167 38.59 95.3603 39.58C94.5903 40.5333 94.0403 41.835 93.7103 43.485L90.4103 58.83C90.337 59.1967 90.1536 59.5083 89.8603 59.765C89.567 60.0217 89.237 60.15 88.8703 60.15H84.3603C83.957 60.15 83.6453 60.0217 83.4253 59.765C83.242 59.5083 83.187 59.1967 83.2603 58.83L86.5603 43.485C86.8903 41.835 86.927 40.5333 86.6703 39.58C86.4503 38.59 86.0103 37.8933 85.3503 37.49C84.6903 37.0867 83.8836 36.885 82.9303 36.885C82.1236 36.885 81.2436 37.105 80.2903 37.545C79.337 37.9483 78.457 38.6267 77.6503 39.58C76.8803 40.5333 76.3303 41.835 76.0003 43.485L72.7003 58.83C72.627 59.1967 72.4436 59.5083 72.1503 59.765C71.857 60.0217 71.527 60.15 71.1603 60.15H66.5403Z" fill="black"/>
<path d="M113 75.15C112.56 75.15 112.267 74.9667 112.12 74.6C111.973 74.2334 112.047 73.83 112.34 73.39L121.47 58.28L116.135 33.09C116.062 32.6867 116.135 32.3383 116.355 32.045C116.575 31.715 116.96 31.55 117.51 31.55H121.635C122.075 31.55 122.387 31.66 122.57 31.88C122.753 32.0633 122.863 32.3017 122.9 32.595L126.585 50.635L138.025 32.595C138.208 32.3017 138.428 32.0633 138.685 31.88C138.978 31.66 139.345 31.55 139.785 31.55H144.515C144.882 31.55 145.157 31.715 145.34 32.045C145.56 32.3383 145.542 32.7233 145.285 33.2L119.38 74.105C119.197 74.3984 118.958 74.6367 118.665 74.82C118.408 75.04 118.06 75.15 117.62 75.15H113Z" fill="black"/>
<path d="M107.424 157.016C106.75 157.016 106.178 156.786 105.706 156.326C105.235 155.866 104.999 155.307 104.999 154.65V85.5162C104.999 84.8589 105.235 84.3003 105.706 83.8402C106.178 83.3801 107.424 83.15 107.424 83.15C110.699 83.15 113.223 83.15 116.499 83.15C117.172 83.15 118.217 83.8402 118.217 83.8402C118.217 83.8402 118.924 84.8589 118.924 85.5162V154.65C118.924 155.307 118.688 155.866 118.217 156.326C117.745 156.786 117.172 157.016 116.499 157.016H107.424Z" fill="black"/>
<path d="M153.291 157.312C149.249 157.312 144.054 158.002 141.291 156.622C138.529 155.241 136.475 153.204 135.127 150.509C133.78 147.748 134.291 140.091 134.291 136.016V112.382H129.217C128.543 112.382 127.97 112.152 127.499 111.692C127.027 111.232 126.791 110.674 126.791 110.016V104.692C126.791 104.035 127.027 103.476 127.499 103.016C127.97 102.556 128.543 102.326 129.217 102.326H135.289V89.3823C135.289 88.725 135.492 88.1664 135.896 87.7063C136.367 87.2462 136.974 87.0161 137.715 87.0161H145.9C146.574 87.0161 147.146 87.2462 147.618 87.7063C148.089 88.1664 148.325 88.725 148.325 89.3823V102.326H155.601C156.275 102.326 156.847 102.556 157.319 103.016C157.79 103.476 158.026 104.035 158.026 104.692V110.016C158.026 110.674 157.79 111.232 157.319 111.692C156.847 112.152 156.275 112.382 155.601 112.382H148.325V135.285C148.325 137.98 147.999 144.516 148.999 146.016C152.499 146.016 152.468 146.016 154.894 146.016C155.567 146.016 156.32 146.105 156.791 146.565C157.263 147.026 157.319 147.725 157.319 148.382V154.946C157.319 155.603 157.083 156.162 156.611 156.622C156.14 157.082 155.567 157.312 154.894 157.312H153.291Z" fill="black"/>
<path fill-rule="evenodd" clip-rule="evenodd" d="M50.6493 89.8892C56.2914 88.4873 68.1201 88.819 72.9999 93.1724C74.508 94.1322 76.8052 98.9454 79.3788 105.523C80.8813 101.318 82.1625 97.5812 82.9999 94.8814V93.15C82.9999 92.4337 83.3773 91.8069 83.9432 91.4537C83.9654 91.3438 83.985 91.2425 83.9999 91.15L84.3173 91.272C84.5305 91.1945 84.7599 91.15 84.9999 91.15H94.9999C96.1044 91.15 96.9998 92.0455 96.9999 93.15V96.15L96.9237 96.5552C96.0488 100.651 91.0381 111.399 85.3983 122.368C88.7185 132.286 91.8693 142.514 93.8827 149.15H94.9999C96.1044 149.15 96.9998 150.045 96.9999 151.15V154.15C96.9999 155.254 97.1043 156.15 95.9999 156.15H81.6018C80.6656 156.15 79.855 155.5 79.6512 154.586C78.9852 151.665 77.6657 146.128 76.0507 139.688C72.6216 145.708 69.7487 150.314 68.3964 151.726C63.7459 156.582 58.0423 158.816 52.3456 158.012C46.6487 157.208 41.3458 153.421 37.4227 147.355C33.4996 141.289 31.2228 133.356 31.0155 125.031C30.8083 116.706 32.6847 108.554 36.2958 102.09C39.9069 95.6271 45.0074 91.2912 50.6493 89.8892ZM64.1581 101.415C60.4901 98.1423 56.9992 99.4418 54.4999 101.172C52.0006 102.903 50.9999 106.172 49.9999 108.172C48.9999 110.172 47.8441 117.415 47.9999 123.672C48.1557 129.93 48.4999 137.172 49.9999 140.672C51.4999 144.172 53.4999 146.672 57.4999 146.672C61.4998 146.672 64.0422 143.672 64.9999 142.672C65.3969 142.258 68.5568 134.386 72.1942 124.876C69.0795 113.421 65.8505 102.926 64.1581 101.415Z" fill="black"/>
</svg>
