<svg width="312" height="69" viewBox="0 0 312 69" fill="none" xmlns="http://www.w3.org/2000/svg">
<path d="M66.715 65.7926C66.6019 65.7926 66.5057 65.7533 66.4266 65.6745C66.3474 65.5957 66.3079 65.5 66.3079 65.3875V61.5724L62.3046 54.5162C62.2933 54.4937 62.282 54.4656 62.2707 54.4318C62.2594 54.398 62.2538 54.3643 62.2538 54.3305C62.2538 54.2292 62.2877 54.1448 62.3555 54.0773C62.4234 54.0098 62.5025 53.976 62.593 53.976H64.1027C64.2384 53.976 64.3458 54.0098 64.425 54.0773C64.5155 54.1448 64.5777 54.218 64.6116 54.2968L67.4952 59.2091L70.3619 54.2968C70.4072 54.218 70.4694 54.1448 70.5485 54.0773C70.639 54.0098 70.7521 53.976 70.8878 53.976H72.3805C72.4823 53.976 72.5671 54.0098 72.6349 54.0773C72.7028 54.1448 72.7367 54.2292 72.7367 54.3305C72.7367 54.3643 72.7311 54.398 72.7197 54.4318C72.7197 54.4656 72.7085 54.4937 72.6858 54.5162L68.6826 61.5724V65.3875C68.6826 65.5 68.6431 65.5957 68.5639 65.6745C68.4847 65.7533 68.3829 65.7926 68.2586 65.7926H66.715Z" fill="#D1AA67"/>
<path d="M78.557 65.9614C77.6524 65.9614 76.8891 65.8039 76.2671 65.4888C75.6564 65.1737 75.1871 64.7291 74.8592 64.1552C74.5425 63.5812 74.3616 62.9116 74.3164 62.1464C74.3051 61.9438 74.2994 61.6962 74.2994 61.4036C74.2994 61.111 74.3051 60.8634 74.3164 60.6609C74.3616 59.8843 74.5482 59.2147 74.8761 58.652C75.2154 58.0781 75.6903 57.6335 76.301 57.3184C76.923 57.0033 77.675 56.8458 78.557 56.8458C79.4391 56.8458 80.1855 57.0033 80.7961 57.3184C81.4181 57.6335 81.893 58.0781 82.221 58.652C82.5602 59.2147 82.7525 59.8843 82.7977 60.6609C82.809 60.8634 82.8147 61.111 82.8147 61.4036C82.8147 61.6962 82.809 61.9438 82.7977 62.1464C82.7525 62.9116 82.5659 63.5812 82.238 64.1552C81.9213 64.7291 81.452 65.1737 80.83 65.4888C80.2194 65.8039 79.4617 65.9614 78.557 65.9614ZM78.557 64.2902C79.1564 64.2902 79.62 64.1045 79.948 63.7332C80.2759 63.3505 80.4569 62.7935 80.4908 62.062C80.5021 61.8932 80.5078 61.6737 80.5078 61.4036C80.5078 61.1335 80.5021 60.9141 80.4908 60.7453C80.4569 60.025 80.2759 59.4736 79.948 59.0909C79.62 58.7083 79.1564 58.517 78.557 58.517C77.9577 58.517 77.4941 58.7083 77.1661 59.0909C76.8382 59.4736 76.6572 60.025 76.6233 60.7453C76.612 60.9141 76.6063 61.1335 76.6063 61.4036C76.6063 61.6737 76.612 61.8932 76.6233 62.062C76.6572 62.7935 76.8382 63.3505 77.1661 63.7332C77.4941 64.1045 77.9577 64.2902 78.557 64.2902Z" fill="#D1AA67"/>
<path d="M89.8338 65.9614C89.144 65.9614 88.5446 65.8095 88.0358 65.5057C87.5382 65.1905 87.1537 64.7516 86.8823 64.1889C86.6109 63.615 86.4752 62.9398 86.4752 62.1632V57.4197C86.4752 57.3072 86.5148 57.2115 86.5939 57.1327C86.6731 57.054 86.7692 57.0146 86.8823 57.0146H88.375C88.4994 57.0146 88.5955 57.054 88.6634 57.1327C88.7425 57.2115 88.7821 57.3072 88.7821 57.4197V62.062C88.7821 63.4574 89.3984 64.1552 90.6311 64.1552C91.2191 64.1552 91.6827 63.9695 92.022 63.5981C92.3726 63.2267 92.5478 62.7147 92.5478 62.062V57.4197C92.5478 57.3072 92.5874 57.2115 92.6666 57.1327C92.7457 57.054 92.8419 57.0146 92.9549 57.0146H94.4477C94.5607 57.0146 94.6569 57.054 94.736 57.1327C94.8152 57.2115 94.8548 57.3072 94.8548 57.4197V65.3875C94.8548 65.5 94.8152 65.5957 94.736 65.6745C94.6569 65.7533 94.5607 65.7926 94.4477 65.7926H93.0737C92.9493 65.7926 92.8475 65.7533 92.7683 65.6745C92.7005 65.5957 92.6666 65.5 92.6666 65.3875V64.6954C92.3613 65.0893 91.9824 65.3988 91.5301 65.6238C91.0777 65.8489 90.5123 65.9614 89.8338 65.9614Z" fill="#D1AA67"/>
<path d="M99.3684 65.7926C99.2553 65.7926 99.1592 65.7533 99.0801 65.6745C99.0009 65.5957 98.9613 65.5 98.9613 65.3875V57.4366C98.9613 57.3128 99.0009 57.2115 99.0801 57.1327C99.1592 57.054 99.2553 57.0146 99.3684 57.0146H100.742C100.855 57.0146 100.952 57.054 101.031 57.1327C101.121 57.2115 101.166 57.3128 101.166 57.4366V58.1287C101.427 57.7686 101.76 57.4929 102.167 57.3016C102.586 57.1102 103.066 57.0146 103.609 57.0146H104.305C104.429 57.0146 104.525 57.054 104.593 57.1327C104.672 57.2115 104.712 57.3072 104.712 57.4197V58.6351C104.712 58.7477 104.672 58.8433 104.593 58.9221C104.525 59.0009 104.429 59.0403 104.305 59.0403H102.981C102.439 59.0403 102.015 59.1922 101.709 59.4961C101.415 59.7999 101.268 60.2163 101.268 60.7453V65.3875C101.268 65.5 101.229 65.5957 101.15 65.6745C101.07 65.7533 100.969 65.7926 100.844 65.7926H99.3684Z" fill="#D1AA67"/>
<path d="M112.486 65.7926C112.373 65.7926 112.277 65.7533 112.198 65.6745C112.119 65.5957 112.079 65.5 112.079 65.3875V54.3812C112.079 54.2686 112.119 54.173 112.198 54.0942C112.277 54.0154 112.373 53.976 112.486 53.976H114.081C114.205 53.976 114.301 54.0154 114.369 54.0942C114.448 54.173 114.488 54.2686 114.488 54.3812V65.3875C114.488 65.5 114.448 65.5957 114.369 65.6745C114.301 65.7533 114.205 65.7926 114.081 65.7926H112.486Z" fill="#D1AA67"/>
<path d="M118.369 65.7926C118.256 65.7926 118.16 65.7533 118.081 65.6745C118.002 65.5957 117.962 65.5 117.962 65.3875V57.4197C117.962 57.3072 118.002 57.2115 118.081 57.1327C118.16 57.054 118.256 57.0146 118.369 57.0146H119.76C119.874 57.0146 119.97 57.054 120.049 57.1327C120.128 57.2115 120.168 57.3072 120.168 57.4197V58.1118C120.462 57.7517 120.835 57.4535 121.287 57.2172C121.751 56.9696 122.322 56.8458 123 56.8458C123.69 56.8458 124.289 57.0033 124.798 57.3184C125.307 57.6223 125.697 58.0556 125.969 58.6183C126.251 59.181 126.393 59.8562 126.393 60.644V65.3875C126.393 65.5 126.353 65.5957 126.274 65.6745C126.195 65.7533 126.099 65.7926 125.986 65.7926H124.493C124.38 65.7926 124.284 65.7533 124.205 65.6745C124.125 65.5957 124.086 65.5 124.086 65.3875V60.7453C124.086 60.0925 123.922 59.5805 123.594 59.2091C123.277 58.8377 122.814 58.652 122.203 58.652C121.615 58.652 121.146 58.8377 120.795 59.2091C120.445 59.5805 120.269 60.0925 120.269 60.7453V65.3875C120.269 65.5 120.23 65.5957 120.151 65.6745C120.071 65.7533 119.975 65.7926 119.862 65.7926H118.369Z" fill="#D1AA67"/>
<path d="M132.421 65.7926C132.24 65.7926 132.105 65.7533 132.014 65.6745C131.935 65.5844 131.867 65.4832 131.811 65.3706L128.639 57.5379C128.616 57.4816 128.605 57.431 128.605 57.386C128.605 57.2847 128.639 57.2003 128.707 57.1327C128.786 57.054 128.876 57.0146 128.978 57.0146H130.352C130.488 57.0146 130.589 57.054 130.657 57.1327C130.725 57.2003 130.77 57.2678 130.793 57.3353L133.049 63.2605L135.305 57.3353C135.328 57.2678 135.373 57.2003 135.441 57.1327C135.509 57.054 135.61 57.0146 135.746 57.0146H137.137C137.227 57.0146 137.307 57.054 137.374 57.1327C137.454 57.2003 137.493 57.2847 137.493 57.386C137.493 57.431 137.488 57.4816 137.476 57.5379L134.287 65.3706C134.242 65.4832 134.174 65.5844 134.084 65.6745C133.993 65.7533 133.858 65.7926 133.677 65.7926H132.421Z" fill="#D1AA67"/>
<path d="M143.543 65.9614C142.288 65.9614 141.293 65.6013 140.558 64.8811C139.823 64.1608 139.427 63.1367 139.37 61.8087C139.359 61.6962 139.353 61.5555 139.353 61.3867C139.353 61.2067 139.359 61.066 139.37 60.9647C139.416 60.1207 139.608 59.3892 139.947 58.7702C140.298 58.1512 140.778 57.6786 141.389 57.3522C142 57.0146 142.718 56.8458 143.543 56.8458C144.459 56.8458 145.228 57.0371 145.85 57.4197C146.472 57.7911 146.941 58.3144 147.258 58.9896C147.575 59.6536 147.733 60.4245 147.733 61.3023V61.6568C147.733 61.7694 147.693 61.865 147.614 61.9438C147.535 62.0226 147.433 62.062 147.309 62.062H141.677C141.677 62.062 141.677 62.0788 141.677 62.1126C141.677 62.1464 141.677 62.1745 141.677 62.197C141.689 62.5909 141.762 62.9566 141.898 63.2943C142.045 63.6206 142.254 63.8851 142.525 64.0877C142.808 64.2902 143.142 64.3915 143.526 64.3915C143.843 64.3915 144.109 64.3465 144.323 64.2565C144.538 64.1552 144.714 64.0426 144.849 63.9189C144.985 63.7951 145.081 63.6938 145.138 63.615C145.239 63.48 145.319 63.4012 145.375 63.3787C145.443 63.3449 145.539 63.328 145.664 63.328H147.122C147.235 63.328 147.326 63.3618 147.394 63.4293C147.473 63.4968 147.507 63.5812 147.495 63.6825C147.484 63.8626 147.388 64.082 147.207 64.3409C147.038 64.5997 146.789 64.8529 146.461 65.1005C146.133 65.3481 145.72 65.5563 145.223 65.7251C144.736 65.8827 144.176 65.9614 143.543 65.9614ZM141.677 60.644H145.426V60.5933C145.426 60.1544 145.353 59.7718 145.206 59.4454C145.059 59.1191 144.844 58.8602 144.561 58.6689C144.278 58.4776 143.939 58.3819 143.543 58.3819C143.147 58.3819 142.808 58.4776 142.525 58.6689C142.243 58.8602 142.028 59.1191 141.881 59.4454C141.745 59.7718 141.677 60.1544 141.677 60.5933V60.644Z" fill="#D1AA67"/>
<path d="M153.893 65.9614C153.214 65.9614 152.632 65.8827 152.146 65.7251C151.671 65.5676 151.281 65.3706 150.975 65.1343C150.67 64.8979 150.444 64.6616 150.297 64.4253C150.15 64.1889 150.071 63.992 150.059 63.8345C150.048 63.7107 150.082 63.615 150.161 63.5475C150.252 63.4687 150.348 63.4293 150.45 63.4293H151.79C151.835 63.4293 151.874 63.4349 151.908 63.4462C151.942 63.4574 151.987 63.4912 152.044 63.5475C152.191 63.6713 152.344 63.8007 152.502 63.9357C152.672 64.0708 152.87 64.1889 153.096 64.2902C153.322 64.3803 153.605 64.4253 153.944 64.4253C154.385 64.4253 154.752 64.3409 155.046 64.1721C155.352 63.992 155.504 63.7388 155.504 63.4124C155.504 63.1761 155.437 62.9848 155.301 62.8385C155.176 62.6922 154.939 62.5628 154.588 62.4502C154.238 62.3264 153.74 62.197 153.096 62.062C152.462 61.9157 151.937 61.73 151.518 61.5049C151.1 61.2798 150.789 60.9985 150.585 60.6609C150.382 60.3232 150.28 59.9293 150.28 59.4792C150.28 59.0403 150.41 58.6239 150.67 58.23C150.941 57.8249 151.337 57.4929 151.857 57.234C152.389 56.9752 153.045 56.8458 153.825 56.8458C154.436 56.8458 154.967 56.9246 155.42 57.0821C155.872 57.2284 156.245 57.4141 156.539 57.6392C156.844 57.8643 157.076 58.095 157.235 58.3313C157.393 58.5564 157.478 58.7533 157.489 58.9221C157.5 59.0459 157.466 59.1472 157.387 59.226C157.308 59.2935 157.218 59.3273 157.116 59.3273H155.861C155.804 59.3273 155.753 59.316 155.708 59.2935C155.663 59.271 155.618 59.2429 155.572 59.2091C155.448 59.0966 155.312 58.9784 155.165 58.8546C155.018 58.7308 154.837 58.6239 154.622 58.5339C154.419 58.4326 154.147 58.3819 153.808 58.3819C153.378 58.3819 153.05 58.4776 152.824 58.6689C152.598 58.849 152.485 59.0797 152.485 59.361C152.485 59.5523 152.536 59.7211 152.638 59.8675C152.751 60.0025 152.971 60.1319 153.299 60.2557C153.627 60.3795 154.125 60.5089 154.792 60.644C155.55 60.779 156.149 60.9816 156.59 61.2517C157.042 61.5105 157.359 61.8144 157.54 62.1632C157.732 62.5009 157.828 62.8779 157.828 63.2943C157.828 63.8007 157.676 64.2565 157.37 64.6616C157.076 65.0668 156.635 65.3875 156.047 65.6238C155.47 65.8489 154.752 65.9614 153.893 65.9614Z" fill="#D1AA67"/>
<path d="M164.55 65.7926C163.872 65.7926 163.301 65.6745 162.837 65.4381C162.373 65.2018 162.028 64.8529 161.802 64.3915C161.576 63.9189 161.463 63.3337 161.463 62.6359V58.804H160.123C160.01 58.804 159.914 58.7646 159.835 58.6858C159.755 58.607 159.716 58.5114 159.716 58.3988V57.4197C159.716 57.3072 159.755 57.2115 159.835 57.1327C159.914 57.054 160.01 57.0146 160.123 57.0146H161.463V54.2124C161.463 54.0998 161.497 54.0042 161.565 53.9254C161.644 53.8466 161.746 53.8072 161.87 53.8072H163.244C163.357 53.8072 163.453 53.8466 163.532 53.9254C163.612 54.0042 163.651 54.0998 163.651 54.2124V57.0146H165.771C165.885 57.0146 165.981 57.054 166.06 57.1327C166.139 57.2115 166.179 57.3072 166.179 57.4197V58.3988C166.179 58.5114 166.139 58.607 166.06 58.6858C165.981 58.7646 165.885 58.804 165.771 58.804H163.651V62.4671C163.651 62.9285 163.73 63.2886 163.889 63.5475C164.058 63.8063 164.347 63.9357 164.754 63.9357H165.924C166.037 63.9357 166.133 63.9751 166.213 64.0539C166.292 64.1327 166.331 64.2283 166.331 64.3409V65.3875C166.331 65.5 166.292 65.5957 166.213 65.6745C166.133 65.7533 166.037 65.7926 165.924 65.7926H164.55Z" fill="#D1AA67"/>
<path d="M169.261 65.7926C169.148 65.7926 169.052 65.7533 168.973 65.6745C168.893 65.5957 168.854 65.5 168.854 65.3875V57.4197C168.854 57.3072 168.893 57.2115 168.973 57.1327C169.052 57.054 169.148 57.0146 169.261 57.0146H170.584C170.697 57.0146 170.793 57.054 170.872 57.1327C170.952 57.2115 170.991 57.3072 170.991 57.4197V57.9937C171.229 57.6786 171.545 57.4141 171.941 57.2003C172.348 56.9752 172.829 56.857 173.383 56.8458C174.672 56.8233 175.571 57.3241 176.08 58.3482C176.34 57.898 176.713 57.5379 177.199 57.2678C177.697 56.9864 178.245 56.8458 178.845 56.8458C179.433 56.8458 179.964 56.9808 180.439 57.2509C180.926 57.521 181.304 57.9318 181.576 58.4832C181.859 59.0234 182 59.7099 182 60.5427V65.3875C182 65.5 181.96 65.5957 181.881 65.6745C181.802 65.7533 181.706 65.7926 181.593 65.7926H180.202C180.089 65.7926 179.993 65.7533 179.913 65.6745C179.834 65.5957 179.795 65.5 179.795 65.3875V60.6777C179.795 60.1713 179.721 59.7718 179.574 59.4792C179.427 59.1753 179.229 58.9615 178.981 58.8377C178.732 58.7139 178.455 58.652 178.149 58.652C177.901 58.652 177.652 58.7139 177.403 58.8377C177.154 58.9615 176.951 59.1753 176.792 59.4792C176.634 59.7718 176.555 60.1713 176.555 60.6777V65.3875C176.555 65.5 176.515 65.5957 176.436 65.6745C176.357 65.7533 176.261 65.7926 176.148 65.7926H174.757C174.632 65.7926 174.531 65.7533 174.451 65.6745C174.384 65.5957 174.35 65.5 174.35 65.3875V60.6777C174.35 60.1713 174.271 59.7718 174.112 59.4792C173.954 59.1753 173.75 58.9615 173.502 58.8377C173.253 58.7139 172.987 58.652 172.704 58.652C172.444 58.652 172.19 58.7196 171.941 58.8546C171.692 58.9784 171.489 59.1866 171.33 59.4792C171.172 59.7718 171.093 60.1713 171.093 60.6777V65.3875C171.093 65.5 171.053 65.5957 170.974 65.6745C170.895 65.7533 170.799 65.7926 170.686 65.7926H169.261Z" fill="#D1AA67"/>
<path d="M188.977 65.9614C187.722 65.9614 186.727 65.6013 185.992 64.8811C185.257 64.1608 184.861 63.1367 184.805 61.8087C184.793 61.6962 184.788 61.5555 184.788 61.3867C184.788 61.2067 184.793 61.066 184.805 60.9647C184.85 60.1207 185.042 59.3892 185.381 58.7702C185.732 58.1512 186.212 57.6786 186.823 57.3522C187.434 57.0146 188.152 56.8458 188.977 56.8458C189.893 56.8458 190.662 57.0371 191.284 57.4197C191.906 57.7911 192.376 58.3144 192.692 58.9896C193.009 59.6536 193.167 60.4245 193.167 61.3023V61.6568C193.167 61.7694 193.128 61.865 193.048 61.9438C192.969 62.0226 192.868 62.062 192.743 62.062H187.111C187.111 62.062 187.111 62.0788 187.111 62.1126C187.111 62.1464 187.111 62.1745 187.111 62.197C187.123 62.5909 187.196 62.9566 187.332 63.2943C187.479 63.6206 187.688 63.8851 187.96 64.0877C188.242 64.2902 188.576 64.3915 188.96 64.3915C189.277 64.3915 189.543 64.3465 189.758 64.2565C189.973 64.1552 190.148 64.0426 190.284 63.9189C190.419 63.7951 190.515 63.6938 190.572 63.615C190.674 63.48 190.753 63.4012 190.809 63.3787C190.877 63.3449 190.973 63.328 191.098 63.328H192.557C192.67 63.328 192.76 63.3618 192.828 63.4293C192.907 63.4968 192.941 63.5812 192.93 63.6825C192.918 63.8626 192.822 64.082 192.641 64.3409C192.472 64.5997 192.223 64.8529 191.895 65.1005C191.567 65.3481 191.154 65.5563 190.657 65.7251C190.17 65.8827 189.611 65.9614 188.977 65.9614ZM187.111 60.644H190.86V60.5933C190.86 60.1544 190.787 59.7718 190.64 59.4454C190.493 59.1191 190.278 58.8602 189.995 58.6689C189.712 58.4776 189.373 58.3819 188.977 58.3819C188.582 58.3819 188.242 58.4776 187.96 58.6689C187.677 58.8602 187.462 59.1191 187.315 59.4454C187.179 59.7718 187.111 60.1544 187.111 60.5933V60.644Z" fill="#D1AA67"/>
<path d="M196.393 65.7926C196.28 65.7926 196.183 65.7533 196.104 65.6745C196.025 65.5957 195.986 65.5 195.986 65.3875V57.4197C195.986 57.3072 196.025 57.2115 196.104 57.1327C196.183 57.054 196.28 57.0146 196.393 57.0146H197.784C197.897 57.0146 197.993 57.054 198.072 57.1327C198.151 57.2115 198.191 57.3072 198.191 57.4197V58.1118C198.485 57.7517 198.858 57.4535 199.31 57.2172C199.774 56.9696 200.345 56.8458 201.023 56.8458C201.713 56.8458 202.313 57.0033 202.822 57.3184C203.33 57.6223 203.721 58.0556 203.992 58.6183C204.275 59.181 204.416 59.8562 204.416 60.644V65.3875C204.416 65.5 204.376 65.5957 204.297 65.6745C204.218 65.7533 204.122 65.7926 204.009 65.7926H202.516C202.403 65.7926 202.307 65.7533 202.228 65.6745C202.149 65.5957 202.109 65.5 202.109 65.3875V60.7453C202.109 60.0925 201.945 59.5805 201.617 59.2091C201.301 58.8377 200.837 58.652 200.226 58.652C199.638 58.652 199.169 58.8377 198.818 59.2091C198.468 59.5805 198.292 60.0925 198.292 60.7453V65.3875C198.292 65.5 198.253 65.5957 198.174 65.6745C198.095 65.7533 197.998 65.7926 197.885 65.7926H196.393Z" fill="#D1AA67"/>
<path d="M211.475 65.7926C210.797 65.7926 210.226 65.6745 209.762 65.4381C209.298 65.2018 208.953 64.8529 208.727 64.3915C208.501 63.9189 208.388 63.3337 208.388 62.6359V58.804H207.048C206.935 58.804 206.839 58.7646 206.76 58.6858C206.68 58.607 206.641 58.5114 206.641 58.3988V57.4197C206.641 57.3072 206.68 57.2115 206.76 57.1327C206.839 57.054 206.935 57.0146 207.048 57.0146H208.388V54.2124C208.388 54.0998 208.422 54.0042 208.49 53.9254C208.569 53.8466 208.671 53.8072 208.795 53.8072H210.169C210.282 53.8072 210.378 53.8466 210.458 53.9254C210.537 54.0042 210.576 54.0998 210.576 54.2124V57.0146H212.697C212.81 57.0146 212.906 57.054 212.985 57.1327C213.064 57.2115 213.104 57.3072 213.104 57.4197V58.3988C213.104 58.5114 213.064 58.607 212.985 58.6858C212.906 58.7646 212.81 58.804 212.697 58.804H210.576V62.4671C210.576 62.9285 210.655 63.2886 210.814 63.5475C210.983 63.8063 211.272 63.9357 211.679 63.9357H212.849C212.962 63.9357 213.058 63.9751 213.138 64.0539C213.217 64.1327 213.256 64.2283 213.256 64.3409V65.3875C213.256 65.5 213.217 65.5957 213.138 65.6745C213.058 65.7533 212.962 65.7926 212.849 65.7926H211.475Z" fill="#D1AA67"/>
<path d="M221.247 65.7926C221.134 65.7926 221.038 65.7533 220.959 65.6745C220.88 65.5957 220.84 65.5 220.84 65.3875V54.398C220.84 54.2743 220.88 54.173 220.959 54.0942C221.038 54.0154 221.134 53.976 221.247 53.976H228.711C228.835 53.976 228.937 54.0154 229.016 54.0942C229.095 54.173 229.135 54.2743 229.135 54.398V55.5122C229.135 55.6247 229.095 55.7204 229.016 55.7992C228.937 55.8779 228.835 55.9173 228.711 55.9173H223.13V58.9052H228.338C228.462 58.9052 228.564 58.9446 228.643 59.0234C228.722 59.0909 228.762 59.1866 228.762 59.3104V60.357C228.762 60.4808 228.722 60.5821 228.643 60.6609C228.564 60.7284 228.462 60.7621 228.338 60.7621H223.13V63.8513H228.847C228.971 63.8513 229.073 63.8907 229.152 63.9695C229.231 64.0483 229.271 64.1496 229.271 64.2734V65.3875C229.271 65.5 229.231 65.5957 229.152 65.6745C229.073 65.7533 228.971 65.7926 228.847 65.7926H221.247Z" fill="#D1AA67"/>
<path d="M231.833 65.7926C231.731 65.7926 231.641 65.7589 231.562 65.6914C231.494 65.6126 231.46 65.5225 231.46 65.4212C231.46 65.3875 231.466 65.3481 231.477 65.3031C231.5 65.2581 231.533 65.2018 231.579 65.1343L234.462 61.2854L231.782 57.6729C231.748 57.6167 231.72 57.566 231.697 57.521C231.686 57.476 231.68 57.431 231.68 57.386C231.68 57.2847 231.714 57.2003 231.782 57.1327C231.861 57.054 231.952 57.0146 232.054 57.0146H233.529C233.665 57.0146 233.767 57.0483 233.835 57.1159C233.903 57.1834 233.953 57.2453 233.987 57.3016L235.904 59.8337L237.821 57.3016C237.866 57.2453 237.917 57.1834 237.974 57.1159C238.042 57.0483 238.143 57.0146 238.279 57.0146H239.687C239.789 57.0146 239.873 57.054 239.941 57.1327C240.02 57.2003 240.06 57.279 240.06 57.3691C240.06 57.4254 240.049 57.476 240.026 57.521C240.015 57.566 239.992 57.6167 239.958 57.6729L237.244 61.3192L240.145 65.1343C240.19 65.2018 240.218 65.2581 240.23 65.3031C240.252 65.3481 240.264 65.3875 240.264 65.4212C240.264 65.5225 240.224 65.6126 240.145 65.6914C240.077 65.7589 239.992 65.7926 239.89 65.7926H238.347C238.222 65.7926 238.126 65.7645 238.058 65.7082C237.991 65.6407 237.934 65.5788 237.889 65.5225L235.853 62.8385L233.784 65.5225C233.739 65.5788 233.682 65.6407 233.614 65.7082C233.558 65.7645 233.462 65.7926 233.326 65.7926H231.833Z" fill="#D1AA67"/>
<path d="M243.223 69C243.11 69 243.014 68.9606 242.934 68.8818C242.855 68.8031 242.816 68.7074 242.816 68.5949V57.4197C242.816 57.3072 242.855 57.2115 242.934 57.1327C243.014 57.054 243.11 57.0146 243.223 57.0146H244.563C244.687 57.0146 244.783 57.054 244.851 57.1327C244.93 57.2115 244.97 57.3072 244.97 57.4197V58.095C245.241 57.7348 245.598 57.4366 246.039 57.2003C246.48 56.9639 247.028 56.8458 247.684 56.8458C248.283 56.8458 248.804 56.9414 249.245 57.1327C249.686 57.3241 250.053 57.5998 250.347 57.9599C250.641 58.3088 250.867 58.7252 251.026 59.2091C251.184 59.693 251.274 60.2276 251.297 60.8128C251.308 61.0041 251.314 61.201 251.314 61.4036C251.314 61.6062 251.308 61.8088 251.297 62.0113C251.286 62.574 251.201 63.0973 251.043 63.5812C250.884 64.0539 250.652 64.4703 250.347 64.8304C250.053 65.1793 249.686 65.455 249.245 65.6576C248.804 65.8602 248.283 65.9614 247.684 65.9614C247.073 65.9614 246.553 65.8545 246.123 65.6407C245.694 65.4156 245.343 65.123 245.072 64.7629V68.5949C245.072 68.7074 245.032 68.8031 244.953 68.8818C244.885 68.9606 244.789 69 244.665 69H243.223ZM247.056 64.1552C247.543 64.1552 247.921 64.0539 248.193 63.8513C248.464 63.6375 248.657 63.3618 248.77 63.0242C248.894 62.6866 248.968 62.3152 248.99 61.91C249.013 61.5724 249.013 61.2348 248.99 60.8972C248.968 60.492 248.894 60.1207 248.77 59.783C248.657 59.4454 248.464 59.1753 248.193 58.9728C247.921 58.7589 247.543 58.652 247.056 58.652C246.593 58.652 246.214 58.7589 245.92 58.9728C245.637 59.1866 245.428 59.4623 245.292 59.7999C245.168 60.1263 245.094 60.4639 245.072 60.8128C245.06 61.0153 245.055 61.2292 245.055 61.4543C245.055 61.6793 245.06 61.8988 245.072 62.1126C245.083 62.4502 245.162 62.7766 245.309 63.0917C245.456 63.3955 245.671 63.6488 245.954 63.8513C246.237 64.0539 246.604 64.1552 247.056 64.1552Z" fill="#D1AA67"/>
<path d="M258.036 65.9614C256.78 65.9614 255.785 65.6013 255.05 64.8811C254.315 64.1608 253.919 63.1367 253.863 61.8087C253.852 61.6962 253.846 61.5555 253.846 61.3867C253.846 61.2067 253.852 61.066 253.863 60.9647C253.908 60.1207 254.1 59.3892 254.44 58.7702C254.79 58.1512 255.271 57.6786 255.881 57.3522C256.492 57.0146 257.21 56.8458 258.036 56.8458C258.952 56.8458 259.721 57.0371 260.343 57.4197C260.965 57.7911 261.434 58.3144 261.75 58.9896C262.067 59.6536 262.225 60.4245 262.225 61.3023V61.6568C262.225 61.7694 262.186 61.865 262.107 61.9438C262.028 62.0226 261.926 62.062 261.801 62.062H256.17C256.17 62.062 256.17 62.0788 256.17 62.1126C256.17 62.1464 256.17 62.1745 256.17 62.197C256.181 62.5909 256.255 62.9566 256.39 63.2943C256.537 63.6206 256.746 63.8851 257.018 64.0877C257.301 64.2902 257.634 64.3915 258.019 64.3915C258.335 64.3915 258.601 64.3465 258.816 64.2565C259.031 64.1552 259.206 64.0426 259.342 63.9189C259.477 63.7951 259.574 63.6938 259.63 63.615C259.732 63.48 259.811 63.4012 259.868 63.3787C259.935 63.3449 260.032 63.328 260.156 63.328H261.615C261.728 63.328 261.818 63.3618 261.886 63.4293C261.965 63.4968 261.999 63.5812 261.988 63.6825C261.977 63.8626 261.88 64.082 261.7 64.3409C261.53 64.5997 261.281 64.8529 260.953 65.1005C260.625 65.3481 260.212 65.5563 259.715 65.7251C259.229 65.8827 258.669 65.9614 258.036 65.9614ZM256.17 60.644H259.919V60.5933C259.919 60.1544 259.845 59.7718 259.698 59.4454C259.551 59.1191 259.336 58.8602 259.053 58.6689C258.771 58.4776 258.431 58.3819 258.036 58.3819C257.64 58.3819 257.301 58.4776 257.018 58.6689C256.735 58.8602 256.52 59.1191 256.373 59.4454C256.238 59.7718 256.17 60.1544 256.17 60.5933V60.644Z" fill="#D1AA67"/>
<path d="M265.451 65.7926C265.338 65.7926 265.242 65.7533 265.162 65.6745C265.083 65.5957 265.044 65.5 265.044 65.3875V57.4366C265.044 57.3128 265.083 57.2115 265.162 57.1327C265.242 57.054 265.338 57.0146 265.451 57.0146H266.825C266.938 57.0146 267.034 57.054 267.113 57.1327C267.204 57.2115 267.249 57.3128 267.249 57.4366V58.1287C267.509 57.7686 267.843 57.4929 268.25 57.3016C268.668 57.1102 269.149 57.0146 269.692 57.0146H270.387C270.511 57.0146 270.608 57.054 270.675 57.1327C270.755 57.2115 270.794 57.3072 270.794 57.4197V58.6351C270.794 58.7477 270.755 58.8433 270.675 58.9221C270.608 59.0009 270.511 59.0403 270.387 59.0403H269.064C268.521 59.0403 268.097 59.1922 267.792 59.4961C267.498 59.7999 267.351 60.2163 267.351 60.7453V65.3875C267.351 65.5 267.311 65.5957 267.232 65.6745C267.153 65.7533 267.051 65.7926 266.927 65.7926H265.451Z" fill="#D1AA67"/>
<path d="M277.121 65.7926C276.443 65.7926 275.871 65.6745 275.408 65.4381C274.944 65.2018 274.599 64.8529 274.373 64.3915C274.147 63.9189 274.034 63.3337 274.034 62.6359V58.804H272.694C272.581 58.804 272.485 58.7646 272.405 58.6858C272.326 58.607 272.287 58.5114 272.287 58.3988V57.4197C272.287 57.3072 272.326 57.2115 272.405 57.1327C272.485 57.054 272.581 57.0146 272.694 57.0146H274.034V54.2124C274.034 54.0998 274.068 54.0042 274.136 53.9254C274.215 53.8466 274.317 53.8072 274.441 53.8072H275.815C275.928 53.8072 276.024 53.8466 276.103 53.9254C276.182 54.0042 276.222 54.0998 276.222 54.2124V57.0146H278.342C278.455 57.0146 278.552 57.054 278.631 57.1327C278.71 57.2115 278.749 57.3072 278.749 57.4197V58.3988C278.749 58.5114 278.71 58.607 278.631 58.6858C278.552 58.7646 278.455 58.804 278.342 58.804H276.222V62.4671C276.222 62.9285 276.301 63.2886 276.46 63.5475C276.629 63.8063 276.918 63.9357 277.325 63.9357H278.495C278.608 63.9357 278.704 63.9751 278.783 64.0539C278.863 64.1327 278.902 64.2283 278.902 64.3409V65.3875C278.902 65.5 278.863 65.5957 278.783 65.6745C278.704 65.7533 278.608 65.7926 278.495 65.7926H277.121Z" fill="#D1AA67"/>
<path fill-rule="evenodd" clip-rule="evenodd" d="M47.9098 2.65598C51.0657 1.86941 57.6821 2.05552 60.4117 4.49809C61.2552 5.03661 62.5402 7.73716 63.9797 11.4277C64.8202 9.06836 65.5368 6.97175 66.0052 5.45696V4.48552C66.0052 4.08363 66.2163 3.73194 66.5329 3.53377C66.5453 3.47211 66.5563 3.41528 66.5646 3.36338L66.7421 3.43183C66.8614 3.38835 66.9897 3.36338 67.1239 3.36338H72.7175C73.3353 3.36338 73.8361 3.86582 73.8362 4.48552V6.16874L73.7936 6.39608C73.3042 8.69412 70.5014 14.7245 67.3468 20.8789C69.204 26.4436 70.9664 32.1823 72.0926 35.9056H72.7175C73.3353 35.9056 73.8361 36.4077 73.8362 37.0277V38.7109C73.8362 39.3303 73.8946 39.8331 73.2768 39.8331H65.2232C64.6995 39.8331 64.2461 39.4684 64.1321 38.9556C63.7596 37.3167 63.0215 34.21 62.1182 30.5967C60.2001 33.9744 58.5931 36.5586 57.8367 37.3509C55.2354 40.0755 52.0451 41.3289 48.8586 40.8778C45.672 40.4267 42.7058 38.3019 40.5114 34.8984C38.317 31.495 37.0435 27.044 36.9275 22.3731C36.8116 17.7021 37.8612 13.1283 39.8811 9.5015C41.901 5.87535 44.7539 3.4426 47.9098 2.65598ZM55.466 9.12278C53.4143 7.28656 51.4616 8.01567 50.0636 8.98644C48.6656 9.95766 48.1059 11.7918 47.5465 12.9139C46.9872 14.0361 46.3407 18.0999 46.4278 21.6106C46.515 25.1218 46.7075 29.185 47.5465 31.1488C48.3856 33.1125 49.5043 34.5152 51.7417 34.5152C53.979 34.5152 55.4011 32.832 55.9368 32.2709C56.1589 32.0387 57.9264 27.6219 59.961 22.2861C58.2188 15.859 56.4126 9.97056 55.466 9.12278Z" fill="#D1AA67"/>
<path d="M80.8121 39.9749C80.3972 39.9749 80.0578 39.8435 79.7937 39.5808C79.5297 39.318 79.3977 38.9802 79.3977 38.5673V1.40757C79.3977 0.99468 79.5297 0.656865 79.7937 0.39412C80.0578 0.131373 80.3972 0 80.8121 0H86.4697C86.8468 0 87.1674 0.131373 87.4314 0.39412C87.6955 0.656865 87.8275 0.99468 87.8275 1.40757V38.5673C87.8275 38.9802 87.6955 39.318 87.4314 39.5808C87.1674 39.8435 86.8468 39.9749 86.4697 39.9749H80.8121Z" fill="#D1AA67"/>
<path d="M106.859 39.9749C104.521 39.9749 102.522 39.5995 100.862 38.8488C99.2024 38.0606 97.9389 36.8595 97.0714 35.2455C96.2416 33.6315 95.8267 31.6046 95.8267 29.1648V17.3412H91.4138C90.999 17.3412 90.6595 17.2098 90.3955 16.9471C90.1315 16.6844 89.9995 16.3465 89.9995 15.9337V12.1051C89.9995 11.6922 90.1315 11.3544 90.3955 11.0916C90.6595 10.8289 90.999 10.6975 91.4138 10.6975H95.8267V1.40757C95.8267 0.99468 95.9587 0.656865 96.2228 0.39412C96.5245 0.131373 96.864 0 97.2411 0H102.786C103.2 0 103.54 0.131373 103.804 0.39412C104.068 0.656865 104.2 0.99468 104.2 1.40757V10.6975H111.272C111.649 10.6975 111.97 10.8289 112.234 11.0916C112.498 11.3544 112.63 11.6922 112.63 12.1051V15.9337C112.63 16.3465 112.498 16.6844 112.234 16.9471C111.97 17.2098 111.649 17.3412 111.272 17.3412H104.2V28.4891C104.2 29.9155 104.445 31.0415 104.935 31.8673C105.463 32.6555 106.369 33.0497 107.651 33.0497H111.781C112.158 33.0497 112.479 33.181 112.743 33.4438C113.007 33.7065 113.139 34.0256 113.139 34.4009V38.5673C113.139 38.9802 113.007 39.318 112.743 39.5808C112.479 39.8435 112.158 39.9749 111.781 39.9749H106.859Z" fill="#D1AA67"/>
<path d="M128.937 40.5379C124.6 40.5379 121.149 39.3368 118.584 36.9345C116.057 34.5323 114.718 31.0415 114.567 26.4622C114.567 26.162 114.567 25.7679 114.567 25.2799C114.567 24.7544 114.567 24.3415 114.567 24.0412C114.718 21.151 115.378 18.6737 116.547 16.6093C117.716 14.5073 119.357 12.9121 121.469 11.8236C123.581 10.6975 126.052 10.1345 128.881 10.1345C132.049 10.1345 134.689 10.7913 136.801 12.1051C138.951 13.3813 140.554 15.1454 141.61 17.3975C142.704 19.6121 143.251 22.1645 143.251 25.0547V26.3496C143.251 26.725 143.1 27.044 142.798 27.3068C142.534 27.5695 142.214 27.7009 141.836 27.7009H123.336C123.336 27.7384 123.336 27.8135 123.336 27.9261C123.336 28.0012 123.336 28.0763 123.336 28.1513C123.374 29.3525 123.6 30.4597 124.015 31.4732C124.468 32.4491 125.09 33.2373 125.882 33.8379C126.712 34.4385 127.693 34.7387 128.824 34.7387C129.767 34.7387 130.54 34.6074 131.144 34.3446C131.747 34.0819 132.237 33.7628 132.615 33.3875C133.029 33.0121 133.331 32.6931 133.52 32.4303C133.859 32.055 134.123 31.8298 134.312 31.7547C134.538 31.6421 134.878 31.5858 135.33 31.5858H141.214C141.591 31.5858 141.893 31.6984 142.119 31.9236C142.383 32.1113 142.496 32.3928 142.459 32.7681C142.421 33.3687 142.1 34.1194 141.497 35.0203C140.931 35.8836 140.083 36.7469 138.951 37.6102C137.82 38.4359 136.405 39.1303 134.708 39.6934C133.048 40.2564 131.125 40.5379 128.937 40.5379ZM123.336 22.5774H134.425V22.4648C134.425 21.1135 134.199 19.9499 133.746 18.974C133.331 17.9605 132.709 17.1723 131.879 16.6093C131.049 16.0463 130.05 15.7647 128.881 15.7647C127.711 15.7647 126.712 16.0463 125.882 16.6093C125.052 17.1723 124.411 17.9605 123.959 18.974C123.544 19.9499 123.336 21.1135 123.336 22.4648V22.5774Z" fill="#D1AA67"/>
<path d="M148.001 39.9749C147.624 39.9749 147.303 39.8435 147.039 39.5808C146.775 39.318 146.643 38.9802 146.643 38.5673V12.1051C146.643 11.7297 146.775 11.4107 147.039 11.1479C147.303 10.8476 147.624 10.6975 148.001 10.6975H153.545C153.923 10.6975 154.243 10.8476 154.507 11.1479C154.809 11.4107 154.96 11.7297 154.96 12.1051V14.3572C155.903 13.1936 157.053 12.2927 158.411 11.6547C159.806 11.0166 161.409 10.6975 163.22 10.6975H165.653C166.03 10.6975 166.35 10.8289 166.614 11.0916C166.878 11.3544 167.01 11.6922 167.01 12.1051V16.9471C167.01 17.36 166.878 17.6978 166.614 17.9605C166.35 18.2233 166.03 18.3547 165.653 18.3547H160.674C159.014 18.3547 157.713 18.8239 156.77 19.7622C155.827 20.6631 155.356 21.958 155.356 23.6471V38.5673C155.356 38.9802 155.224 39.318 154.96 39.5808C154.696 39.8435 154.356 39.9749 153.941 39.9749H148.001Z" fill="#D1AA67"/>
<path d="M170.324 39.9749C169.947 39.9749 169.626 39.8435 169.362 39.5808C169.098 39.318 168.966 38.9802 168.966 38.5673V12.1051C168.966 11.6922 169.098 11.3544 169.362 11.0916C169.626 10.8289 169.947 10.6975 170.324 10.6975H175.868C176.283 10.6975 176.623 10.8289 176.887 11.0916C177.151 11.3544 177.283 11.6922 177.283 12.1051V14.3009C178.263 13.0998 179.527 12.1051 181.073 11.3168C182.62 10.5286 184.506 10.1345 186.731 10.1345C188.956 10.1345 190.899 10.6412 192.558 11.6547C194.256 12.6306 195.576 14.0757 196.519 15.99C197.499 17.8667 197.99 20.1564 197.99 22.8589V38.5673C197.99 38.9802 197.839 39.318 197.537 39.5808C197.273 39.8435 196.952 39.9749 196.575 39.9749H190.578C190.163 39.9749 189.824 39.8435 189.56 39.5808C189.296 39.318 189.164 38.9802 189.164 38.5673V23.1967C189.164 21.2073 188.673 19.6684 187.693 18.5799C186.75 17.4538 185.354 16.8908 183.506 16.8908C181.733 16.8908 180.319 17.4538 179.263 18.5799C178.207 19.6684 177.679 21.2073 177.679 23.1967V38.5673C177.679 38.9802 177.547 39.318 177.283 39.5808C177.019 39.8435 176.698 39.9749 176.321 39.9749H170.324Z" fill="#D1AA67"/>
<path d="M211.161 40.5379C209.162 40.5379 207.37 40.1626 205.786 39.4119C204.202 38.6236 202.939 37.5726 201.996 36.2589C201.053 34.9452 200.581 33.4813 200.581 31.8673C200.581 29.2023 201.656 27.1003 203.806 25.5614C205.994 24.0225 208.86 22.9715 212.406 22.4085L219.817 21.3387V20.3253C219.817 18.8614 219.478 17.7353 218.799 16.9471C218.12 16.1589 216.932 15.7647 215.234 15.7647C213.99 15.7647 212.99 16.0087 212.236 16.4967C211.482 16.9846 210.897 17.6227 210.482 18.411C210.18 18.8989 209.747 19.1429 209.181 19.1429H203.806C203.391 19.1429 203.071 19.0303 202.844 18.8051C202.618 18.5423 202.524 18.2421 202.562 17.9042C202.562 17.2661 202.807 16.5154 203.297 15.6521C203.787 14.7888 204.542 13.9443 205.56 13.1185C206.578 12.2552 207.88 11.542 209.464 10.979C211.048 10.416 212.99 10.1345 215.291 10.1345C217.667 10.1345 219.704 10.416 221.401 10.979C223.098 11.542 224.456 12.3303 225.475 13.3437C226.493 14.3572 227.247 15.5395 227.738 16.8908C228.228 18.2045 228.473 19.6309 228.473 21.1698V38.5673C228.473 38.9802 228.341 39.318 228.077 39.5808C227.813 39.8435 227.474 39.9749 227.059 39.9749H221.514C221.137 39.9749 220.817 39.8435 220.553 39.5808C220.289 39.318 220.157 38.9802 220.157 38.5673V36.4841C219.666 37.1973 219.006 37.8729 218.176 38.511C217.347 39.1116 216.347 39.5995 215.178 39.9749C214.046 40.3502 212.707 40.5379 211.161 40.5379ZM213.424 34.6824C214.669 34.6824 215.781 34.4197 216.762 33.8942C217.743 33.3687 218.516 32.5617 219.082 31.4732C219.647 30.3847 219.93 29.0146 219.93 27.3631V26.4059L214.669 27.2505C212.632 27.5883 211.142 28.095 210.199 28.7707C209.256 29.4463 208.785 30.2721 208.785 31.248C208.785 31.9611 208.992 32.5805 209.407 33.106C209.86 33.6315 210.444 34.0256 211.161 34.2883C211.878 34.5511 212.632 34.6824 213.424 34.6824Z" fill="#D1AA67"/>
<path d="M246.983 39.9749C244.645 39.9749 242.646 39.5995 240.986 38.8488C239.327 38.0606 238.063 36.8595 237.196 35.2455C236.366 33.6315 235.951 31.6046 235.951 29.1648V17.3412H231.538C231.123 17.3412 230.784 17.2098 230.52 16.9471C230.256 16.6844 230.124 16.3465 230.124 15.9337V12.1051C230.124 11.6922 230.256 11.3544 230.52 11.0916C230.784 10.8289 231.123 10.6975 231.538 10.6975H235.951V1.40757C235.951 0.99468 236.083 0.656865 236.347 0.39412C236.649 0.131373 236.988 0 237.365 0H242.91C243.325 0 243.664 0.131373 243.928 0.39412C244.192 0.656865 244.324 0.99468 244.324 1.40757V10.6975H251.396C251.773 10.6975 252.094 10.8289 252.358 11.0916C252.622 11.3544 252.754 11.6922 252.754 12.1051V15.9337C252.754 16.3465 252.622 16.6844 252.358 16.9471C252.094 17.2098 251.773 17.3412 251.396 17.3412H244.324V28.4891C244.324 29.9155 244.569 31.0415 245.06 31.8673C245.588 32.6555 246.493 33.0497 247.775 33.0497H251.905C252.282 33.0497 252.603 33.181 252.867 33.4438C253.131 33.7065 253.263 34.0256 253.263 34.4009V38.5673C253.263 38.9802 253.131 39.318 252.867 39.5808C252.603 39.8435 252.282 39.9749 251.905 39.9749H246.983Z" fill="#D1AA67"/>
<path d="M269.061 40.5379C264.724 40.5379 261.273 39.3368 258.708 36.9345C256.181 34.5323 254.842 31.0415 254.691 26.4622C254.691 26.162 254.691 25.7679 254.691 25.2799C254.691 24.7544 254.691 24.3415 254.691 24.0412C254.842 21.151 255.502 18.6737 256.671 16.6093C257.84 14.5073 259.481 12.9121 261.593 11.8236C263.705 10.6975 266.176 10.1345 269.005 10.1345C272.173 10.1345 274.813 10.7913 276.925 12.1051C279.075 13.3813 280.678 15.1454 281.734 17.3975C282.828 19.6121 283.375 22.1645 283.375 25.0547V26.3496C283.375 26.725 283.224 27.044 282.922 27.3068C282.658 27.5695 282.338 27.7009 281.961 27.7009H263.46C263.46 27.7384 263.46 27.8135 263.46 27.9261C263.46 28.0012 263.46 28.0763 263.46 28.1513C263.498 29.3525 263.724 30.4597 264.139 31.4732C264.592 32.4491 265.214 33.2373 266.006 33.8379C266.836 34.4385 267.817 34.7387 268.948 34.7387C269.891 34.7387 270.664 34.6074 271.268 34.3446C271.871 34.0819 272.362 33.7628 272.739 33.3875C273.154 33.0121 273.455 32.6931 273.644 32.4303C273.983 32.055 274.247 31.8298 274.436 31.7547C274.662 31.6421 275.002 31.5858 275.454 31.5858H281.338C281.715 31.5858 282.017 31.6984 282.243 31.9236C282.507 32.1113 282.621 32.3928 282.583 32.7681C282.545 33.3687 282.225 34.1194 281.621 35.0203C281.055 35.8836 280.207 36.7469 279.075 37.6102C277.944 38.4359 276.529 39.1303 274.832 39.6934C273.172 40.2564 271.249 40.5379 269.061 40.5379ZM263.46 22.5774H274.549V22.4648C274.549 21.1135 274.323 19.9499 273.87 18.974C273.455 17.9605 272.833 17.1723 272.003 16.6093C271.173 16.0463 270.174 15.7647 269.005 15.7647C267.836 15.7647 266.836 16.0463 266.006 16.6093C265.176 17.1723 264.535 17.9605 264.083 18.974C263.668 19.9499 263.46 21.1135 263.46 22.4648V22.5774Z" fill="#D1AA67"/>
<path d="M298.365 40.5379C296.027 40.5379 294.009 40.2752 292.312 39.7497C290.652 39.1866 289.294 38.511 288.238 37.7228C287.22 36.9345 286.447 36.1463 285.919 35.3581C285.428 34.5323 285.164 33.8379 285.127 33.2749C285.089 32.862 285.221 32.5242 285.523 32.2614C285.824 31.9987 286.126 31.8673 286.428 31.8673H291.916C292.029 31.8673 292.142 31.8861 292.255 31.9236C292.368 31.9611 292.481 32.055 292.595 32.2051C293.085 32.5429 293.594 32.9371 294.122 33.3875C294.65 33.8004 295.254 34.1569 295.932 34.4572C296.649 34.7575 297.535 34.9076 298.592 34.9076C299.836 34.9076 300.892 34.6637 301.76 34.1757C302.627 33.6502 303.061 32.9183 303.061 31.9799C303.061 31.3043 302.854 30.7413 302.439 30.2908C302.062 29.8404 301.326 29.4275 300.232 29.0522C299.138 28.6768 297.517 28.2639 295.367 27.8135C293.33 27.3631 291.595 26.7625 290.162 26.0118C288.729 25.2611 287.654 24.3227 286.937 23.1967C286.22 22.0331 285.862 20.6443 285.862 19.0303C285.862 17.5664 286.315 16.1589 287.22 14.8076C288.163 13.4563 289.539 12.3491 291.35 11.4857C293.16 10.5849 295.423 10.1345 298.139 10.1345C300.213 10.1345 302.024 10.3972 303.57 10.9227C305.154 11.4107 306.474 12.0488 307.531 12.837C308.587 13.5877 309.379 14.3759 309.907 15.2017C310.472 15.99 310.774 16.6844 310.812 17.2849C310.85 17.6603 310.736 17.9793 310.472 18.2421C310.208 18.5048 309.907 18.6362 309.567 18.6362H304.532C304.343 18.6362 304.174 18.6174 304.023 18.5799C303.872 18.5048 303.74 18.411 303.627 18.2984C303.174 17.9981 302.703 17.6603 302.212 17.2849C301.76 16.872 301.213 16.5154 300.572 16.2152C299.931 15.9149 299.101 15.7647 298.082 15.7647C296.838 15.7647 295.876 16.0463 295.197 16.6093C294.556 17.1348 294.235 17.8104 294.235 18.6362C294.235 19.1617 294.405 19.6496 294.744 20.1C295.084 20.5505 295.782 20.9634 296.838 21.3387C297.894 21.7141 299.497 22.1082 301.647 22.5211C304.211 22.9715 306.248 23.6471 307.757 24.548C309.266 25.4488 310.34 26.4998 310.982 27.7009C311.661 28.8645 312 30.1219 312 31.4732C312 33.2373 311.472 34.8138 310.416 36.2026C309.36 37.5539 307.813 38.6236 305.777 39.4119C303.778 40.1626 301.307 40.5379 298.365 40.5379Z" fill="#D1AA67"/>
<path d="M34.9232 21.6045C34.9232 31.2018 27.1054 38.9819 17.4616 38.9819C7.81783 38.9819 0 31.2018 0 21.6045C0 12.0073 7.81783 4.22716 17.4616 4.22716C27.1054 4.22716 34.9232 12.0073 34.9232 21.6045Z" fill="#D1AA67"/>
<path d="M3.36921 25.64C3.2412 25.64 3.1388 25.5938 3.06199 25.5015C2.99799 25.4091 2.97879 25.297 3.00439 25.165L4.92448 15.823C4.95008 15.6911 5.01409 15.5789 5.11649 15.4865C5.2317 15.3942 5.3533 15.348 5.48131 15.348H6.97898C7.10699 15.348 7.20299 15.3942 7.26699 15.4865C7.331 15.5789 7.3502 15.6911 7.3246 15.823L7.19019 16.496C7.4334 16.2452 7.68301 16.0209 7.93902 15.823C8.20784 15.6119 8.51505 15.447 8.86067 15.3282C9.20629 15.2094 9.60951 15.1501 10.0703 15.1501C10.8128 15.1501 11.4208 15.3084 11.8944 15.6251C12.3808 15.9286 12.7073 16.3574 12.8737 16.9116C13.2833 16.3838 13.7569 15.9616 14.2945 15.6449C14.8322 15.315 15.4594 15.1501 16.1762 15.1501C16.8675 15.1501 17.4627 15.3084 17.9619 15.6251C18.4739 15.9418 18.8323 16.4234 19.0372 17.0699C19.242 17.7033 19.2484 18.5082 19.0564 19.4846L17.8659 25.165C17.8403 25.297 17.7763 25.4091 17.6739 25.5015C17.5715 25.5938 17.4563 25.64 17.3283 25.64H15.7538C15.6258 25.64 15.5234 25.5938 15.4466 25.5015C15.3826 25.4091 15.3634 25.297 15.389 25.165L16.5218 19.6429C16.6498 19.0492 16.6754 18.5807 16.5986 18.2377C16.5218 17.8814 16.3618 17.6307 16.1186 17.4856C15.8882 17.3404 15.6066 17.2679 15.2738 17.2679C14.9794 17.2679 14.6657 17.3404 14.3329 17.4856C14.0129 17.6307 13.7121 17.8814 13.4305 18.2377C13.1617 18.5807 12.9697 19.0492 12.8545 19.6429L11.7024 25.165C11.6768 25.297 11.6128 25.4091 11.5104 25.5015C11.408 25.5938 11.2928 25.64 11.1648 25.64H9.59031C9.4495 25.64 9.34069 25.5938 9.26389 25.5015C9.19989 25.4091 9.18068 25.297 9.20629 25.165L10.3583 19.6429C10.4735 19.0492 10.4863 18.5807 10.3967 18.2377C10.3199 17.8814 10.1663 17.6307 9.93592 17.4856C9.70551 17.3404 9.4239 17.2679 9.09108 17.2679C8.80947 17.2679 8.50225 17.347 8.16944 17.5054C7.83662 17.6505 7.52941 17.8946 7.24779 18.2377C6.97898 18.5807 6.78697 19.0492 6.67177 19.6429L5.51971 25.165C5.49411 25.297 5.43011 25.4091 5.3277 25.5015C5.2253 25.5938 5.11009 25.64 4.98209 25.64H3.36921Z" fill="black"/>
<path d="M19.5886 31.0379C19.435 31.0379 19.3326 30.972 19.2814 30.84C19.2302 30.7081 19.2558 30.5629 19.3582 30.4046L22.5456 24.9671L20.6831 15.9022C20.6575 15.757 20.6831 15.6317 20.7599 15.5261C20.8367 15.4074 20.9712 15.348 21.1632 15.348H22.6032C22.7568 15.348 22.8656 15.3876 22.9296 15.4667C22.9937 15.5327 23.0321 15.6185 23.0449 15.724L24.3313 22.2159L28.3251 15.724C28.3891 15.6185 28.4659 15.5327 28.5555 15.4667C28.6579 15.3876 28.7859 15.348 28.9395 15.348H30.5908C30.7188 15.348 30.8148 15.4074 30.8788 15.5261C30.9556 15.6317 30.9492 15.7702 30.8596 15.9418L21.8159 30.6619C21.7519 30.7674 21.6687 30.8532 21.5663 30.9192C21.4767 30.9984 21.3551 31.0379 21.2015 31.0379H19.5886Z" fill="black"/>
</svg>
