<svg className="size-6" width="24" height="26" viewBox="0 0 24 26" fill="none" xmlns="http://www.w3.org/2000/svg">
<path d="M5.83301 9.10156C7.07565 9.10156 8.08301 10.1089 8.08301 11.3516V18.5C8.08301 19.7426 7.07565 20.75 5.83301 20.75H5.5C4.25736 20.75 3.25 19.7426 3.25 18.5V11.3516C3.25 10.1089 4.25736 9.10156 5.5 9.10156H5.83301ZM18.499 12.6719C19.7417 12.6719 20.749 13.6792 20.749 14.9219V18.5C20.749 19.7426 19.7416 20.75 18.499 20.75H18.166C16.9234 20.75 15.916 19.7426 15.916 18.5V14.9219C15.916 13.6792 16.9234 12.6719 18.166 12.6719H18.499ZM12.166 3.25C13.4087 3.25 14.416 4.25736 14.416 5.5V18.499C14.416 19.7417 13.4087 20.749 12.166 20.749H11.833C10.5904 20.749 9.58301 19.7417 9.58301 18.499V5.5C9.58301 4.25736 10.5904 3.25 11.833 3.25H12.166ZM5.5 10.6016C5.08579 10.6016 4.75 10.9373 4.75 11.3516V18.5C4.75 18.9142 5.08579 19.25 5.5 19.25H5.83301C6.24722 19.25 6.58301 18.9142 6.58301 18.5V11.3516C6.58301 10.9373 6.24722 10.6016 5.83301 10.6016H5.5ZM18.166 14.1719C17.7518 14.1719 17.416 14.5077 17.416 14.9219V18.5C17.416 18.9142 17.7518 19.25 18.166 19.25H18.499C18.9132 19.25 19.249 18.9142 19.249 18.5V14.9219C19.249 14.5077 18.9132 14.1719 18.499 14.1719H18.166ZM11.833 4.75C11.4188 4.75 11.083 5.08579 11.083 5.5V18.499C11.083 18.9132 11.4188 19.249 11.833 19.249H12.166C12.5802 19.249 12.916 18.9132 12.916 18.499V5.5C12.916 5.08579 12.5802 4.75 12.166 4.75H11.833Z" fill="currentColor"/>
</svg>
