<svg className="size-6" width="24" height="26" viewBox="0 0 24 26" fill="none" xmlns="http://www.w3.org/2000/svg">
<path d="M18.5008 3.24609C19.7432 3.24631 20.7507 4.25363 20.7508 5.49609V18.4971C20.7507 19.7395 19.7432 20.7469 18.5008 20.7471H15.1004C13.858 20.7469 12.8505 19.7395 12.8504 18.4971V14.2451H14.3504V18.4971C14.3505 18.9111 14.6864 19.2469 15.1004 19.2471H18.5008C18.9148 19.2469 19.2507 18.9111 19.2508 18.4971V5.49609C19.2507 5.08206 18.9148 4.74631 18.5008 4.74609H15.1004C14.6864 4.74629 14.3505 5.08205 14.3504 5.49609V9.74512H12.8504V5.49609C12.8505 4.25363 13.858 3.24629 15.1004 3.24609H18.5008ZM8.09552 6.84473C8.38829 6.55238 8.86325 6.55233 9.15607 6.84473C9.44857 7.13744 9.44841 7.61238 9.15607 7.90527L5.81427 11.248H16.0008C16.4149 11.248 16.7506 11.584 16.7508 11.998C16.7508 12.4123 16.415 12.748 16.0008 12.748H5.81036L9.15607 16.0947C9.44856 16.3875 9.44845 16.8625 9.15607 17.1553C8.8632 17.448 8.38835 17.4479 8.09552 17.1553L3.47345 12.5303C3.46878 12.5256 3.46434 12.5204 3.45978 12.5156C3.43351 12.4879 3.40874 12.4592 3.38751 12.4287C3.30183 12.3068 3.25079 12.1584 3.25079 11.998C3.25089 11.8216 3.31475 11.6613 3.41681 11.5332C3.41992 11.5293 3.42338 11.5253 3.42657 11.5215C3.44886 11.4947 3.47209 11.4688 3.49786 11.4453L8.09552 6.84473Z" fill="currentColor"/>
</svg>
