<svg className="size-6" width="24" height="26" viewBox="0 0 24 26" fill="none" xmlns="http://www.w3.org/2000/svg">
<path d="M13.5187 2C14.7521 2.00021 15.7519 3.00017 15.7521 4.2334C15.7521 4.79819 16.3638 5.15136 16.8527 4.86914C17.9208 4.25273 19.2868 4.61842 19.9034 5.68652L21.42 8.31348C22.0365 9.38178 21.6698 10.7475 20.6017 11.3643C20.1126 11.6467 20.1126 12.3533 20.6017 12.6357C21.67 13.2526 22.0358 14.6182 21.4191 15.6865L19.9034 18.3135C19.2868 19.3816 17.9208 19.7473 16.8527 19.1309C16.3639 18.8486 15.7521 19.2018 15.7521 19.7666C15.7519 20.9998 14.7521 21.9998 13.5187 22H10.4865C9.25266 22 8.25208 20.9994 8.25208 19.7656C8.25178 19.2011 7.63986 18.8484 7.15051 19.1309C6.08208 19.7474 4.71567 19.381 4.09875 18.3125L2.58313 15.6865C1.96648 14.6182 2.33224 13.2526 3.40051 12.6357C3.8896 12.3533 3.88962 11.6467 3.40051 11.3643C2.33223 10.7474 1.96646 9.38184 2.58313 8.31348L4.09875 5.6875C4.71567 4.61904 6.08208 4.25261 7.15051 4.86914C7.63987 5.15159 8.2518 4.79897 8.25208 4.23438C8.25208 3.00058 9.25266 2 10.4865 2H13.5187ZM10.4865 3.5C10.0811 3.5 9.75208 3.82901 9.75208 4.23438C9.7518 5.95403 7.88956 7.02857 6.40051 6.16895C6.04933 5.96628 5.60027 6.0865 5.39758 6.4375L3.88196 9.06348C3.67956 9.41441 3.79963 9.86284 4.15051 10.0654C5.6396 10.9252 5.63961 13.0747 4.15051 13.9346C3.79964 14.1371 3.67958 14.5856 3.88196 14.9365L5.39758 17.5625C5.60026 17.9135 6.04933 18.0337 6.40051 17.8311C7.88954 16.9715 9.75178 18.046 9.75208 19.7656C9.75208 20.171 10.0811 20.5 10.4865 20.5H13.5187C13.9235 20.4998 14.2519 20.1716 14.2521 19.7666C14.2521 18.0475 16.1135 16.9723 17.6027 17.832C17.9533 18.0341 18.4011 17.9139 18.6036 17.5635L20.1202 14.9365C20.3227 14.5856 20.2025 14.1372 19.8517 13.9346C18.3627 13.0747 18.3627 10.9252 19.8517 10.0654C20.2025 9.86281 20.3227 9.41438 20.1202 9.06348L18.6046 6.43652C18.4022 6.08589 17.9534 5.96584 17.6027 6.16797C16.1135 7.02772 14.2521 5.95253 14.2521 4.2334C14.2519 3.82844 13.9235 3.50021 13.5187 3.5H10.4865ZM12.0011 8.16504C14.119 8.1651 15.836 9.88204 15.8361 12C15.836 14.1179 14.119 15.8349 12.0011 15.835C9.88314 15.8349 8.16619 14.118 8.16614 12C8.16616 9.88202 9.88312 8.16506 12.0011 8.16504ZM12.0011 9.66504C10.7115 9.66506 9.66616 10.7104 9.66614 12C9.66619 13.2895 10.7116 14.3349 12.0011 14.335C13.2906 14.3349 14.336 13.2895 14.3361 12C14.336 10.7105 13.2906 9.6651 12.0011 9.66504Z" fill="currentColor"/>
</svg>
