<svg width="12" height="15" viewBox="0 0 12 15" fill="none" xmlns="http://www.w3.org/2000/svg">
<path d="M11.3327 8.00063C11.3327 11.334 8.99935 13.0006 6.22602 13.9673C6.08079 14.0165 5.92304 14.0142 5.77935 13.9606C2.99935 13.0006 0.666016 11.334 0.666016 8.00063V3.33396C0.666016 3.15715 0.736254 2.98758 0.861278 2.86255C0.986302 2.73753 1.15587 2.66729 1.33268 2.66729C2.66602 2.66729 4.33268 1.86729 5.49268 0.853959C5.63392 0.733291 5.81358 0.666992 5.99935 0.666992C6.18511 0.666992 6.36478 0.733291 6.50602 0.853959C7.67268 1.87396 9.33268 2.66729 10.666 2.66729C10.8428 2.66729 11.0124 2.73753 11.1374 2.86255C11.2624 2.98758 11.3327 3.15715 11.3327 3.33396V8.00063Z" stroke="black" stroke-width="1.33333" stroke-linecap="round" stroke-linejoin="round"/>
</svg>
